<svg width="24" height="24" viewBox="0 0 24 24" fill="none" xmlns="http://www.w3.org/2000/svg">
<path d="M1.63687 21H5.45297V11.7314L0 7.63688V19.3631C0 20.2706 0.734531 21 1.63687 21Z" fill="#4285F4"/>
<path d="M18.547 21H22.3631C23.2655 21 24 20.2655 24 19.3631V7.63688L18.547 11.7263V21Z" fill="#34A853"/>
<path d="M18.547 4.63688V11.7263L24 7.63688V5.45297C24 3.43219 21.6914 2.27531 20.0737 3.48985L18.547 4.63688Z" fill="#FBBC04"/>
<path d="M5.45297 11.7314V4.63688L12 9.5475L18.547 4.63688V11.7314L12 16.6369L5.45297 11.7314Z" fill="#EA4335"/>
<path d="M0 5.45766V7.64156L5.45297 11.7309V4.63687L3.92625 3.49453C2.30859 2.28 0 3.43687 0 5.45766Z" fill="#C5221F"/>
</svg>
